<svg height="60px" viewBox="0 0 105 60" width="90px" xmlns="http://www.w3.org/2000/svg"><path d="m94.7624007 26.2435881h-1.8581885c-.3275559 0-.6295906.3081514-.6333871.3146898l-7.0594293 9.2428536c-.1326675.1721092-.3418983.1681018-.4676055-.0084367l-6.519057-9.2331514c-.0035857-.0078039-.2457197-.3239702-.7019355-.3239702h-12.5217866c-.2187221 0-.3952606-.1765385-.3937842-.394206l.0084368-3.0502977c0-.437866-.3547643-.7911539-.7894665-.7911539h-19.1787841c-2.9703599.1003971-4.2409306.3975807-5.599876 1.1908437-1.2528536.7344169-1.8782258 1.6660422-1.8782258 2.7860174 0 1.187469.9691687 2.3582754 2.908139 3.5134739.4981886.2997147 2.2928908 1.164268 5.3796774 2.5907072 1.9393921.8959802 2.985335 1.633139 2.9098263 2.3612283-.1176923 1.1712283-1.182196 1.5732382-3.7195409 1.5732382h-11.596067c-.2807321 0-.5097891-.0487221-.5097891-.267866 0-.1073573.0641191-.2054342.1851861-.2824193l-.0021092-.0016874c2.596402-1.5603722 3.4529404-3.6684987 3.4529404-5.5792059 0-3.575273-3.0072704-7.8843301-14.9800372-7.8843301h-10.4096526c-.435335 0-.78799006.3532879-.78799006.7911539v14.2049131c0 .4338586.35265506.7875683.78925556.7875683h10.4083871c.3973697 0 .7829281-.0048511 1.1568859-.0147643h26.0350992c2.3778909 0 4.2352358-.3931514 5.576675-1.1760794 1.2385111-.7287221 1.8575558-1.6504342 1.8575558-2.7771588 0-1.182407-.9689578-2.3511042-2.9077171-3.5052482-.4962903-.2988709-2.289938-1.16933-5.3815757-2.6023076-1.9381266-.8953474-2.9072953-1.6194293-2.9072953-2.1726675 0-1.1866253 1.2553846-1.761799 3.7623573-1.761799h8.8011911c.2180893 0 .3946278.1754838.3958933.3925186l-.0056948 10.3069354c0 1.5110174.9999628 3.2958065 4.0308561 3.2958065h24.1910422c.5732754 0 .862866-.3703722.862866-.3703722l8.2888709-10.8926551s.1837097-.2621712-.1921464-.2621712m-75.1283995 9.831526h-2.562655c-.2183003 0-.3952606-.1765384-.3952606-.3937841v-11.5838337c0-.2172457.1769603-.394206.3931514-.394206h2.5647642c6.3399876 0 9.702866 2.6056824 9.702866 6.1809554 0 3.5908809-3.394727 6.1908684-9.702866 6.1908684m58.0718735.0423946h-11.1744417c-1.5550993 0-1.9256824-.4433499-1.9256824-1.6445286v-6.197196c0-.2081762.1647271-.3754342.3674194-.3897767h6.4888958c.2045905.0143425.4515756.1373077.5808684.2935981l5.8266129 7.6411414c.1147395.1632506.0455584.2967618-.1636724.2967618" fill="#fff" fill-rule="evenodd"/></svg>